<svg xmlns="http://www.w3.org/2000/svg" xmlns:xlink="http://www.w3.org/1999/xlink" width="398" height="360.802" viewBox="0 0 398 360.802"><defs><style>.a{fill:none;stroke:#3ad29f;stroke-miterlimit:10;stroke-width:5px;stroke-dasharray:12;opacity:0.4;}.b{fill:#f5f5f5;}.c,.p,.q{opacity:0.5;}.d{fill:url(#a);}.e{fill:#dbe8fc;}.f{fill:url(#b);}.g{fill:#6c63ff;}.h,.k{fill:#fff;}.i{fill:#fafafa;}.j{opacity:0.05;}.k{opacity:0.1;}.l{opacity:0.03;}.m{fill:url(#c);}.n{fill:url(#d);}.o,.q{fill:#3ad29f;}.p{fill:#f55f44;}</style><linearGradient id="a" x1="0.63" y1="1.074" x2="0.63" y2="0.106" gradientUnits="objectBoundingBox"><stop offset="0" stop-color="gray" stop-opacity="0.251"/><stop offset="0.54" stop-color="gray" stop-opacity="0.122"/><stop offset="1" stop-color="gray" stop-opacity="0.102"/></linearGradient><linearGradient id="b" x1="0.534" y1="0.975" x2="0.534" y2="0.03" xlink:href="#a"/><linearGradient id="c" x1="4.313" y1="1.103" x2="4.313" y2="0.161" xlink:href="#a"/><linearGradient id="d" x1="0.9" y1="0.928" x2="0.9" y2="0.031" xlink:href="#a"/></defs><circle class="a" cx="131.578" cy="131.578" r="131.578" transform="translate(57.367 58.344)"/><circle class="a" cx="100.331" cy="100.331" r="100.331" transform="translate(88.614 89.59)"/><path class="b" d="M949.232,503.965a.732.732,0,1,0-.732-.732.732.732,0,0,0,.732.732Z" transform="translate(-586.965 -296.711)"/><g class="c" transform="translate(331.108 154.127)"><path class="d" d="M886.18,399.8l1.069,9.765,17.679-1.953a16.6,16.6,0,0,1,18.318,14.7l2.8,25.588a16.6,16.6,0,0,1-14.7,18.318l-17.679,1.953,1.069,9.765,27.443-3.008a16.6,16.6,0,0,0,14.686-18.314l-4.926-45.127a16.6,16.6,0,0,0-18.318-14.7Z" transform="translate(-886.18 -396.686)"/></g><path class="e" d="M891.86,408.28l.976,8.734,14.066-1.543a16.6,16.6,0,0,1,18.318,14.7l2.124,19.4a16.6,16.6,0,0,1-14.7,18.318l-14.066,1.543.976,8.734,22.761-2.509a16.6,16.6,0,0,0,14.7-18.318l-4.038-36.852a16.6,16.6,0,0,0-18.318-14.7Z" transform="translate(-557.979 -247.164)"/><g class="c" transform="translate(204.007 117.317)"><path class="f" d="M752.277,507.164l-84.254,9.228a22.214,22.214,0,0,1-24.5-19.666L625.85,335.356l128.4-14.066,17.674,161.37A22.214,22.214,0,0,1,752.277,507.164Z" transform="translate(-625.85 -321.29)"/></g><path class="e" d="M0,0H123.035V153.549a22.215,22.215,0,0,1-22.215,22.215H22.215A22.215,22.215,0,0,1,0,153.549Z" transform="translate(207.542 135.417) rotate(-6.25)"/><path class="g" d="M0,0H105.214V135.973A22.215,22.215,0,0,1,83,158.187H22.215A22.215,22.215,0,0,1,0,135.973Z" transform="translate(217.21 142.951) rotate(-6.25)"/><path class="h" d="M696.153,396.99a1.72,1.72,0,0,0,.371,3.418C698.711,400.188,698.34,396.775,696.153,396.99Z" transform="translate(-457.071 -242.709)"/><path class="i" d="M724.853,475.377a1.72,1.72,0,0,0,.371,3.418C727.411,478.575,727.04,475.138,724.853,475.377Z" transform="translate(-471.759 -282.824)"/><path class="i" d="M714.713,529.807a1.72,1.72,0,0,0,.371,3.418C717.271,533.005,716.9,529.568,714.713,529.807Z" transform="translate(-466.569 -310.68)"/><path class="i" d="M741.463,599.307a1.72,1.72,0,0,0,.371,3.418C744.021,602.505,743.645,599.068,741.463,599.307Z" transform="translate(-480.259 -346.248)"/><path class="i" d="M805.713,598.307a1.72,1.72,0,0,0,.371,3.418C808.271,601.5,807.9,598.063,805.713,598.307Z" transform="translate(-513.14 -345.736)"/><path class="h" d="M798.743,396.867a1.72,1.72,0,0,0,.371,3.418C801.3,400.065,800.93,396.628,798.743,396.867Z" transform="translate(-509.573 -242.645)"/><path class="h" d="M844.913,386.778a1.72,1.72,0,0,0,.371,3.418C847.471,389.975,847.1,386.538,844.913,386.778Z" transform="translate(-533.202 -237.481)"/><path class="i" d="M758.623,420.324c-2.812.308-2.339,4.677.488,4.37S761.435,420.016,758.623,420.324Z" transform="translate(-488.827 -254.648)"/><path class="i" d="M816.023,512.623c-2.812.308-2.339,4.677.488,4.37S818.831,512.311,816.023,512.623Z" transform="translate(-518.203 -301.883)"/><path class="i" d="M728.8,655.441c-3.125.342-2.6,5.195.532,4.853S731.942,655.095,728.8,655.441Z" transform="translate(-473.458 -374.973)"/><path class="i" d="M697.053,420.5c-3.125.342-2.6,5.195.532,4.853S700.182,420.16,697.053,420.5Z" transform="translate(-457.21 -254.738)"/><rect class="i" width="105.458" height="30.759" transform="translate(216.757 138.827) rotate(-6.25)"/><path class="j" d="M706.577,500.737l-14.8-135.167-38.824,4.253,14.8,135.162a22.215,22.215,0,0,0,24.5,19.666l38.839-4.253a22.215,22.215,0,0,1-24.514-19.661Z" transform="translate(-435.712 -226.634)"/><path class="k" d="M796.856,490.294l-14.8-135.162,38.824-4.253L835.69,486.042a22.214,22.214,0,0,1-19.666,24.5L777.2,514.794A22.215,22.215,0,0,0,796.856,490.294Z" transform="translate(-499.299 -219.116)"/><path class="l" d="M764.091,316.719c-1.055-9.647-31.247-14.256-67.434-10.3s-64.661,15-63.607,24.651c.644,5.883,12.128,9.892,29.2,11.229a10.98,10.98,0,0,0,18.065,11.9c2.583,8.905,8.339,14.989,14.3,14.334,6.523-.713,11.058-9.252,10.927-19.764,2.7,2.993,6.039,4.643,9.481,4.267,4.194-.459,7.6-3.828,9.5-8.686a10.3,10.3,0,0,0,7.5,2.4c3.383-.371,6.254-2.632,8.232-6.039,1.382,7.695,6.708,13.241,12.382,12.621,6.03-.659,10.17-8.041,9.247-16.483a18.549,18.549,0,0,0-4.814-10.922C761.855,322.876,764.423,319.717,764.091,316.719Z" transform="translate(-425.513 -195.638)"/><path class="i" d="M763.111,307.719c-1.055-9.647-31.247-14.256-67.434-10.3s-64.661,15-63.607,24.651c.644,5.883,12.128,9.892,29.2,11.229a10.98,10.98,0,0,0,18.065,11.9c2.583,8.905,8.339,14.989,14.3,14.334,6.523-.713,11.058-9.252,10.927-19.764,2.7,2.993,6.039,4.643,9.482,4.267,4.194-.459,7.6-3.828,9.5-8.686a10.3,10.3,0,0,0,7.5,2.4c3.383-.371,6.254-2.632,8.232-6.039,1.382,7.695,6.708,13.246,12.367,12.621,6.03-.659,10.17-8.041,9.247-16.483a18.549,18.549,0,0,0-4.814-10.922C760.875,313.9,763.443,310.746,763.111,307.719Z" transform="translate(-425.012 -191.032)"/><g class="c" transform="translate(21.27 74.195)"><path class="m" d="M310.1,240.244l-2.4,9.53-17.244-4.345a16.6,16.6,0,0,0-20.164,12.045l-6.3,24.958A16.6,16.6,0,0,0,276.028,302.6l17.244,4.345-2.383,9.53-26.77-6.747a16.6,16.6,0,0,1-12.045-20.164l11.088-44.014a16.6,16.6,0,0,1,20.164-12.074Z" transform="translate(-251.566 -232.968)"/></g><path class="e" d="M310.26,248.531l-2.148,8.52-13.724-3.457a16.6,16.6,0,0,0-20.159,12.054l-4.77,18.924a16.6,16.6,0,0,0,12.05,20.135l13.744,3.476L293.1,316.7l-22.263-5.6A16.6,16.6,0,0,1,258.8,290.939l9.062-35.968a16.6,16.6,0,0,1,20.164-12.045Z" transform="translate(-233.735 -163.608)"/><g class="c" transform="translate(43.638 41.739)"><path class="n" d="M314.175,350.875l82.189,20.711a22.214,22.214,0,0,0,26.97-16.112L463,198.059,337.718,166.49,298.059,323.905A22.214,22.214,0,0,0,314.175,350.875Z" transform="translate(-297.38 -166.49)"/></g><path class="e" d="M22.214,0h78.6a22.214,22.214,0,0,1,22.214,22.214V175.763H0V22.214A22.214,22.214,0,0,1,22.214,0Z" transform="translate(162.25 247.251) rotate(-165.86)"/><path class="g" d="M22.214,0H83a22.214,22.214,0,0,1,22.214,22.214V158.186H0V22.214A22.214,22.214,0,0,1,22.214,0Z" transform="translate(155.931 236.351) rotate(-165.86)"/><path class="h" d="M556.819,267.729a1.71,1.71,0,0,1-.835,3.315A1.71,1.71,0,0,1,556.819,267.729Z" transform="translate(-385.45 -176.532)"/><path class="i" d="M517.622,341.389a1.71,1.71,0,0,1-.835,3.315A1.71,1.71,0,0,1,517.622,341.389Z" transform="translate(-365.392 -214.229)"/><path class="i" d="M520.192,396.689a1.71,1.71,0,0,1-.835,3.315A1.71,1.71,0,0,1,520.192,396.689Z" transform="translate(-366.707 -242.53)"/><path class="i" d="M484.175,461.868a1.71,1.71,0,0,1-.835,3.315A1.71,1.71,0,0,1,484.175,461.868Z" transform="translate(-348.276 -275.886)"/><path class="i" d="M420.651,452.048a1.71,1.71,0,0,1-.835,3.315A1.71,1.71,0,0,1,420.651,452.048Z" transform="translate(-315.764 -270.86)"/><path class="h" d="M455.209,253.469a1.71,1.71,0,0,1-.835,3.315A1.71,1.71,0,0,1,455.209,253.469Z" transform="translate(-333.45 -169.234)"/><path class="h" d="M410.827,237.139a1.71,1.71,0,0,1-.835,3.315A1.71,1.71,0,0,1,410.827,237.139Z" transform="translate(-310.74 -160.877)"/><path class="i" d="M490.667,282.14c2.744.688,1.675,4.951-1.074,4.262S487.923,281.447,490.667,282.14Z" transform="translate(-351.292 -183.899)"/><path class="i" d="M421.19,365.69c2.744.688,1.675,4.951-1.074,4.262S418.421,365,421.19,365.69Z" transform="translate(-315.732 -226.657)"/><path class="i" d="M487.378,519.082c3.047.766,1.86,5.5-1.191,4.736S484.326,518.316,487.378,519.082Z" transform="translate(-349.457 -305.154)"/><path class="i" d="M551.1,290.732c3.047.767,1.86,5.5-1.191,4.736S548.072,289.966,551.1,290.732Z" transform="translate(-382.073 -188.292)"/><rect class="i" width="105.458" height="30.758" transform="translate(188.078 108.757) rotate(-165.86)"/><path class="j" d="M432.54,363.692l33.2-131.852,37.877,9.545-33.2,131.852a22.214,22.214,0,0,1-26.97,16.112L405.57,379.8A22.214,22.214,0,0,0,432.54,363.692Z" transform="translate(-309.11 -158.195)"/><path class="k" d="M367.065,340.246l33.2-131.852-37.877-9.545L329.188,330.7a22.215,22.215,0,0,0,16.112,26.97l37.877,9.545A22.214,22.214,0,0,1,367.065,340.246Z" transform="translate(-269.673 -141.312)"/><path class="l" d="M365.217,164.662c2.373-9.413,32.912-9.833,68.206-.937s62.005,23.733,59.618,33.146c-1.465,5.742-13.373,8.134-30.466,7.114a10.98,10.98,0,0,1-19.529,9.306c-3.784,8.466-10.316,13.7-16.112,12.235-6.347-1.6-9.686-10.682-8.109-21.077-3.081,2.6-6.62,3.769-9.975,2.929-4.091-1.03-7-4.833-8.212-9.906a10.252,10.252,0,0,1-7.758,1.352c-3.3-.83-5.834-3.462-7.323-7.114-2.441,7.431-8.461,12.206-14,10.8-5.859-1.465-8.969-9.359-6.894-17.576a18.374,18.374,0,0,1,6.269-10.155C366.584,171.092,364.475,167.611,365.217,164.662Z" transform="translate(-287.847 -120.057)"/><path class="i" d="M367.417,155.932c2.373-9.413,32.912-9.833,68.206-.937s62.005,23.733,59.618,33.146c-1.465,5.742-13.373,8.134-30.466,7.114a10.98,10.98,0,0,1-19.529,9.306c-3.784,8.466-10.316,13.7-16.112,12.235-6.347-1.6-9.686-10.682-8.109-21.077-3.081,2.6-6.62,3.769-9.975,2.929-4.091-1.03-7-4.833-8.212-9.906a10.252,10.252,0,0,1-7.758,1.352c-3.3-.83-5.834-3.462-7.323-7.114-2.441,7.431-8.461,12.206-14,10.8-5.859-1.465-8.969-9.359-6.894-17.576a18.373,18.373,0,0,1,6.269-10.155C368.784,162.362,366.67,158.881,367.417,155.932Z" transform="translate(-288.973 -115.59)"/><g class="c" transform="translate(358.848 319.356)"><path class="g" d="M951.367,736.12a5.317,5.317,0,0,0-6.938.645,5.434,5.434,0,0,0,.215,7.572l6.655,6.591a1.108,1.108,0,0,0,1.567,0l6.591-6.63a5.434,5.434,0,0,0,.171-7.573,5.317,5.317,0,0,0-6.938-.605A1.118,1.118,0,0,1,951.367,736.12Z" transform="translate(-942.997 -735.108)"/></g><g class="c" transform="translate(8.299 299.338)"><path class="g" d="M233.367,695.12a5.317,5.317,0,0,0-6.938.645,5.434,5.434,0,0,0,.215,7.572l6.655,6.591a1.108,1.108,0,0,0,1.567,0l6.591-6.63a5.434,5.434,0,0,0,.171-7.572,5.317,5.317,0,0,0-6.938-.605,1.118,1.118,0,0,1-1.323,0Z" transform="translate(-224.997 -694.108)"/></g><g class="c" transform="translate(25.875 33.253)"><path class="g" d="M269.367,150.12a5.317,5.317,0,0,0-6.938.644,5.434,5.434,0,0,0,.215,7.572l6.655,6.591a1.108,1.108,0,0,0,1.567,0l6.591-6.63a5.434,5.434,0,0,0,.171-7.572,5.317,5.317,0,0,0-6.938-.605A1.118,1.118,0,0,1,269.367,150.12Z" transform="translate(-260.997 -149.108)"/></g><g class="c" transform="translate(297.331 11.77)"><path class="g" d="M825.367,106.12a5.317,5.317,0,0,0-6.938.644,5.434,5.434,0,0,0,.215,7.572l6.655,6.591a1.108,1.108,0,0,0,1.567,0l6.591-6.63a5.434,5.434,0,0,0,.171-7.572,5.317,5.317,0,0,0-6.938-.605,1.118,1.118,0,0,1-1.323,0Z" transform="translate(-816.997 -105.108)"/></g><g class="c" transform="translate(212.869)"><rect class="o" width="1.465" height="8.3" transform="translate(3.418)"/><rect class="o" width="1.465" height="8.3" transform="translate(8.3 3.418) rotate(90)"/></g><g class="c" transform="translate(0 106.434)"><rect class="o" width="1.465" height="8.3" transform="translate(3.418)"/><rect class="o" width="1.465" height="8.3" transform="translate(8.3 3.418) rotate(90)"/></g><g class="c" transform="translate(273.897 352.502)"><rect class="o" width="1.465" height="8.3" transform="translate(3.418)"/><rect class="o" width="1.465" height="8.3" transform="translate(8.3 3.418) rotate(90)"/></g><g class="c" transform="translate(4.882 242.651)"><rect class="o" width="1.465" height="8.3" transform="translate(3.418)"/><rect class="o" width="1.465" height="8.3" transform="translate(8.3 3.418) rotate(90)"/></g><g class="c" transform="translate(95.693 254.856)"><rect class="o" width="1.465" height="8.3" transform="translate(3.418)"/><rect class="o" width="1.465" height="8.3" transform="translate(8.3 3.418) rotate(90)"/></g><path class="p" d="M348.827,748.406a1.792,1.792,0,0,1-.976-2.168.865.865,0,0,0,.039-.2h0a.9.9,0,0,0-1.616-.6h0a.865.865,0,0,0-.1.176,1.792,1.792,0,0,1-2.168.977.861.861,0,0,0-.2-.039h0a.9.9,0,0,0-.6,1.616h0a.861.861,0,0,0,.176.1,1.792,1.792,0,0,1,.976,2.168.867.867,0,0,0-.039.2h0a.9.9,0,0,0,1.616.6h0a.864.864,0,0,0,.1-.176,1.792,1.792,0,0,1,2.168-.976.864.864,0,0,0,.2.039h0a.9.9,0,0,0,.6-1.616h0A.861.861,0,0,0,348.827,748.406Z" transform="translate(-277.013 -420.857)"/><path class="q" d="M596.827,714.406a1.792,1.792,0,0,1-.977-2.168.87.87,0,0,0,.039-.2h0a.9.9,0,0,0-1.616-.6h0a.871.871,0,0,0-.1.176,1.792,1.792,0,0,1-2.168.977.864.864,0,0,0-.2-.039h0a.9.9,0,0,0-.6,1.616h0a.867.867,0,0,0,.176.1,1.792,1.792,0,0,1,.976,2.168.859.859,0,0,0-.039.2h0a.9.9,0,0,0,1.616.6h0a.867.867,0,0,0,.1-.176,1.792,1.792,0,0,1,2.168-.976.867.867,0,0,0,.2.039h0a.9.9,0,0,0,.6-1.616h0A.864.864,0,0,0,596.827,714.406Z" transform="translate(-403.932 -403.456)"/><path class="p" d="M692.827,246.406a1.792,1.792,0,0,1-.977-2.168.867.867,0,0,0,.039-.2h0a.9.9,0,0,0-1.616-.6h0a.867.867,0,0,0-.1.176,1.792,1.792,0,0,1-2.168.976.863.863,0,0,0-.2-.039h0a.9.9,0,0,0-.6,1.616h0a.864.864,0,0,0,.176.1,1.792,1.792,0,0,1,.976,2.168.861.861,0,0,0-.039.2h0a.9.9,0,0,0,1.616.6h0a.861.861,0,0,0,.1-.176,1.792,1.792,0,0,1,2.168-.976.865.865,0,0,0,.2.039h0a.9.9,0,0,0,.6-1.616h0a.862.862,0,0,0-.176-.1Z" transform="translate(-453.062 -163.948)"/><path class="p" d="M949.827,252.406a1.792,1.792,0,0,1-.977-2.168.861.861,0,0,0,.039-.2h0a.9.9,0,0,0-1.616-.6h0a.861.861,0,0,0-.1.176,1.792,1.792,0,0,1-2.168.976.863.863,0,0,0-.2-.039h0a.9.9,0,0,0-.6,1.616h0a.864.864,0,0,0,.176.1,1.792,1.792,0,0,1,.976,2.168.861.861,0,0,0-.039.2h0a.9.9,0,0,0,1.616.6h0a.865.865,0,0,0,.1-.176,1.792,1.792,0,0,1,2.168-.976.862.862,0,0,0,.2.039h0a.9.9,0,0,0,.6-1.616h0a.865.865,0,0,0-.176-.1Z" transform="translate(-584.586 -167.019)"/><path class="p" d="M579.827,527.406a1.792,1.792,0,0,1-.976-2.168.867.867,0,0,0,.039-.2h0a.9.9,0,0,0-1.616-.6h0a.87.87,0,0,0-.1.176,1.792,1.792,0,0,1-2.168.977.863.863,0,0,0-.2-.039h0a.9.9,0,0,0-.6,1.616h0a.864.864,0,0,0,.176.1,1.792,1.792,0,0,1,.976,2.168.861.861,0,0,0-.039.2h0a.9.9,0,0,0,1.616.6h0a.864.864,0,0,0,.1-.176,1.792,1.792,0,0,1,2.168-.977.861.861,0,0,0,.2.039h0a.9.9,0,0,0,.6-1.616h0a.865.865,0,0,0-.176-.1Z" transform="translate(-395.232 -307.756)"/><path class="p" d="M1015.827,101.406a1.792,1.792,0,0,1-.976-2.168.867.867,0,0,0,.039-.2h0a.9.9,0,0,0-1.616-.6h0a.864.864,0,0,0-.1.176,1.792,1.792,0,0,1-2.168.976.862.862,0,0,0-.2-.039h0a.9.9,0,0,0-.6,1.616h0a.867.867,0,0,0,.176.1,1.792,1.792,0,0,1,.977,2.168.867.867,0,0,0-.039.2h0a.9.9,0,0,0,1.616.6h0a.858.858,0,0,0,.1-.176,1.792,1.792,0,0,1,2.168-.977.864.864,0,0,0,.2.039h0a.9.9,0,0,0,.6-1.616h0a.861.861,0,0,0-.176-.1Z" transform="translate(-618.363 -89.742)"/></svg>